<svg xmlns="http://www.w3.org/2000/svg" width="220" height="78" viewBox="0 0 220 78" fill="none"><path fill-rule="evenodd" clip-rule="evenodd" d="M74.9809 47.985C83.109 47.11 90.4021 53.0663 91.2827 61.2987C92.1634 69.5311 86.299 76.9317 78.1747 77.8411C70.0263 78.753 62.6948 72.7908 61.8116 64.5342C60.9284 56.2775 66.8289 48.8626 74.9809 47.985ZM84.556 53.5395C81.9108 49.9487 79.3078 47.9753 74.7823 48.4516C63.5976 50.4358 63.0293 68.1007 70.4004 74.5275C72.8054 76.6244 75.1116 77.5397 78.282 77.2488C88.4773 75.6215 89.7047 60.5288 84.556 53.5395Z" fill="#FFF7ED"></path><path fill-rule="evenodd" clip-rule="evenodd" d="M200.272 48.0071C208.374 46.9302 215.803 52.7117 216.865 60.9195C217.927 69.1273 212.219 76.6529 204.116 77.7272C196.016 78.8014 188.589 73.0203 187.527 64.8142C186.466 56.6081 192.171 49.0837 200.272 48.0071ZM203.092 77.27C218.07 75.7819 215.159 47.9642 201.304 48.3581C193.401 49.0442 190.653 57.1604 191.304 64.156C191.884 70.3921 196.195 77.5018 203.092 77.27Z" fill="#FFF7ED"></path><path fill-rule="evenodd" clip-rule="evenodd" d="M204.51 8.20635C212.489 7.61737 219.42 13.7136 219.966 21.8001C220.511 29.8865 214.462 36.8806 206.477 37.396C198.543 37.9081 191.694 31.8278 191.152 23.7932C190.611 15.7586 196.581 8.79153 204.51 8.20635ZM210.753 10.6307C208.75 8.98286 207.071 8.48237 204.493 8.63668C190.199 10.4164 192.455 37.098 206.755 36.8659C214.75 36.1086 216.639 28.2631 216.084 21.3437C215.742 17.1018 214.046 13.3405 210.753 10.6307Z" fill="#FFF7ED"></path><path fill-rule="evenodd" clip-rule="evenodd" d="M126.298 8.31798C134.212 7.25307 141.471 12.9061 142.492 20.9265C143.513 28.947 137.904 36.2802 129.983 37.2826C122.106 38.2797 114.915 32.636 113.901 24.6596C112.886 16.6832 118.429 9.37704 126.298 8.31798ZM133.133 10.4707C131.095 8.89285 129.329 8.55976 126.802 8.74367C123.972 9.19784 121.743 10.4393 120.116 12.8526C115.627 19.5106 116.976 30.3145 123.544 35.1468C125.507 36.5907 127.283 36.9502 129.602 36.8532C131.464 36.6341 132.458 36.2742 134.019 35.1668C138.696 31.8476 138.973 25.725 138.475 20.4762C138.111 16.6278 136.206 12.8384 133.133 10.4707Z" fill="#FFF7ED"></path><path fill-rule="evenodd" clip-rule="evenodd" d="M155.245 48.0439C155.528 48.0073 158.002 48.1177 158.573 48.1253C161.933 48.1927 165.319 47.9725 168.669 48.239C176.638 48.8727 182.165 56.3846 181.315 64.27C180.894 68.3723 178.872 72.1338 175.697 74.7167C171.581 77.5994 168.282 77.8392 163.418 77.5986C162.368 77.5467 155.59 77.7429 155.196 77.5241L155.226 77.3495C156.057 77.0801 157.794 76.8081 157.904 75.7233C158.228 72.5162 158.091 68.5838 158.091 65.4084L158.088 56.5083C158.087 54.7786 158.115 53.0544 158.041 51.3258C157.938 48.9175 157.423 48.8749 155.401 48.3319L155.245 48.0439ZM173.379 51.8595C169.568 48.412 165.879 49.0063 161.147 49.0265L161.142 65.7243C161.142 67.6329 160.906 74.7164 161.576 76.1699C162.194 76.7901 163.333 76.7227 164.156 76.7275C168.392 76.752 171.129 76.7198 174.281 73.52C174.346 73.4539 174.41 73.387 174.474 73.3195C177.073 70.2533 177.742 67.5623 177.779 63.5284C177.822 59.0006 176.804 54.9569 173.379 51.8595Z" fill="#FFF7ED"></path><path fill-rule="evenodd" clip-rule="evenodd" d="M112.837 48.0281C113.14 48.0028 116.224 48.1046 116.685 48.1262C120.401 48.3179 124.335 47.5532 127.871 49.0037C131.164 50.3554 132.466 54.0305 131.072 57.2882C130.063 59.6465 128.062 60.8786 125.765 61.7928C130.637 62.4048 134.523 64.7465 134.012 70.4824C133.905 71.6826 133.416 72.7078 132.813 73.7363C132.434 74.2729 131.996 74.7641 131.508 75.2007C128.079 78.2493 123.483 77.6365 119.281 77.5945C116.939 77.5712 114.486 77.7152 112.159 77.5594C113.199 77.1329 114.797 77.1429 115.301 75.9096C115.486 75.3126 115.577 74.4475 115.581 73.8311C115.626 66.6982 115.627 59.5624 115.586 52.4295C115.583 51.7853 115.462 50.5042 115.289 49.8997C114.968 48.7729 113.801 48.7022 112.938 48.3208L112.837 48.0281ZM128.539 64.3564C126.042 61.8043 122.058 62.2926 118.763 62.322L118.759 70.2773C118.76 71.6975 118.536 75.159 119.34 76.3584C119.751 76.9706 122.985 76.8795 123.756 76.8437C125.649 76.7454 127.191 76.1825 128.6 74.9437C131.178 72.1659 131.204 67.0784 128.539 64.3564ZM126.473 50.2367C124.718 48.6185 121.027 49.0019 118.76 49.0125V61.4266C121.374 61.4465 124.646 61.8255 126.623 59.8506L126.688 59.7847C128.803 57.3572 128.878 52.4563 126.473 50.2367Z" fill="#FFF7ED"></path><path fill-rule="evenodd" clip-rule="evenodd" d="M33.2208 48.0266C33.5626 48.0118 33.9859 48.0657 34.3356 48.0852C38.1653 48.2992 42.0831 47.8765 45.8948 48.2758C51.0542 48.8164 54.3909 54.0983 51.9818 58.9298C50.8628 61.1745 48.4668 62.2805 46.2169 62.9666C48.6066 66.3727 52.5404 74.7272 55.6626 76.6013C56.8868 77.3361 57.3918 77.0273 58.2985 77.3654C58.4441 77.4197 58.4406 77.474 58.5047 77.6097C58.2224 78.3938 54.7967 77.7802 54.0737 77.624C51.6456 77.0993 50.615 75.7636 49.3744 73.7307C47.2987 70.2633 45.0795 66.9513 42.9571 63.5023L38.9798 63.485C38.9758 65.6272 38.6486 74.8025 39.3645 76.2469C39.8046 77.1346 41.4311 77.2705 42.2859 77.5515C40.9006 77.6706 38.9617 77.6001 37.5101 77.614C36.3904 77.6248 34.2493 77.671 33.2013 77.5363C33.1924 77.2754 35.3366 76.8604 35.5722 76.0683C36.0338 74.5162 35.8572 72.7317 35.8583 71.1165L35.8658 64.2112C35.8704 59.9835 35.8962 55.7191 35.8501 51.4901C35.8452 51.0396 35.7651 49.9911 35.597 49.5855C35.1918 48.6074 34.0793 48.6671 33.3157 48.3247L33.2208 48.0266ZM43.8543 49.0352C42.2912 48.9308 40.6 49.0078 38.9938 49.0197L38.9783 62.7567C42.0843 62.757 44.9432 63.0364 47.6097 61.0627C48.9297 59.9246 49.1037 59.0125 49.2906 57.3224C49.7599 53.0796 48.6294 49.3542 43.8543 49.0352Z" fill="#FFF7ED"></path><path fill-rule="evenodd" clip-rule="evenodd" d="M32.4347 8.31703C32.7596 8.23442 34.5938 8.33875 35.0589 8.37919C39.0936 8.7306 44.8223 7.59037 48.4142 9.55432C50.015 10.4385 51.1993 11.9357 51.7022 13.7111C52.6357 16.9427 51.2441 20.2357 48.3132 21.7912C47.3201 22.3183 46.4991 22.5746 45.4345 22.8859C47.1043 25.9187 51.9781 34.3723 54.4101 36.1018C55.2504 36.6993 56.0094 36.6299 56.9108 36.9643L56.9584 37.1228L56.7581 37.2821C55.995 37.4524 53.3819 37.3526 52.5829 37.1713C50.4504 36.687 49.463 34.9549 48.3866 33.2254L42.1928 23.619C40.9598 23.5779 39.5654 23.6086 38.32 23.6078C38.3163 25.8069 38.0088 34.226 38.7543 35.7492C39.2543 36.7706 39.9513 36.5197 40.8508 36.8492C41.0416 36.9192 41.1027 36.9325 41.1897 37.1279C40.8892 37.331 32.913 37.3446 32.6272 37.1897L32.6492 36.9401C33.149 36.5361 34.9091 36.9119 35.0625 35.5544C35.47 31.9452 35.3012 28.1383 35.3009 24.4906L35.2974 16.4502C35.2957 14.2927 35.4914 11.5593 34.832 9.52833C34.5572 8.6817 32.932 9.11757 32.4347 8.31703ZM38.3247 22.7138C41.5239 22.7177 44.2387 22.9502 46.9525 20.8597C48.4688 19.3629 48.7065 18.2661 48.7699 16.1827C48.9057 11.7261 46.3833 9.32985 42.0667 9.29282L38.3209 9.29181L38.3247 22.7138Z" fill="#FFF7ED"></path><path fill-rule="evenodd" clip-rule="evenodd" d="M147.808 8.21355C150.266 8.46008 153.081 8.47707 155.575 8.39104C159.934 8.24055 165.563 8.79663 166.909 13.9613C167.388 15.7392 167.141 17.6374 166.225 19.229C164.917 21.4634 162.704 22.3202 160.343 22.934C160.428 23.0844 160.516 23.2334 160.606 23.3809C161.914 25.5127 163.54 27.7466 164.962 29.8579C166.261 31.7878 167.629 34.2084 169.246 35.8151C169.907 36.472 170.832 36.6984 171.705 36.9053L171.78 37.0799L171.653 37.2423C171.069 37.4375 168.601 37.2934 167.926 37.1855C165.807 36.847 164.594 34.7637 163.468 33.0788C162.256 31.1389 161.029 29.2094 159.786 27.2903C159.059 26.163 158.147 24.6799 157.324 23.6662C156.187 23.5837 154.882 23.6048 153.727 23.5988L153.72 30.3733C153.717 31.9378 153.65 33.4074 153.878 34.9801C154.187 37.1091 156.145 36.3331 156.305 37.1452C156.192 37.2101 147.981 37.2767 147.856 37.2122C147.779 36.557 149.584 36.7095 149.951 35.8622C150.797 33.905 150.532 30.6773 150.534 28.5612L150.536 19.4099L150.531 13.8818C150.529 12.8694 150.559 11.4544 150.41 10.4552C150.136 8.62354 148.381 8.90215 147.859 8.55322L147.808 8.21355ZM161.355 10.3995C159.232 8.95854 156.223 9.28954 153.731 9.2949L153.722 22.7304C156.847 22.724 159.32 22.8717 161.918 20.8047C163.304 19.3794 163.741 18.0955 163.773 16.0702C163.808 13.865 163.265 11.6958 161.355 10.3995Z" fill="#FFF7ED"></path><path fill-rule="evenodd" clip-rule="evenodd" d="M6.84565 48.0251C7.67955 47.989 8.77689 48.0913 9.65274 48.1207C12.8847 48.2292 16.3532 47.8898 19.5455 48.3064C24.0522 48.8945 27.3114 52.4871 26.5669 57.2198C26.2182 59.3209 25.0624 61.1968 23.3524 62.437C20.4777 64.5157 15.9736 64.3884 12.6516 63.8191L12.6458 69.1767C12.6407 71.0456 12.4811 74.5006 13.1768 76.2016C13.5086 77.0126 15.1872 77.253 16.0688 77.5297C15.0865 77.6812 12.3283 77.6409 11.2589 77.6317C9.89266 77.6199 7.21504 77.7208 5.96796 77.5269C8.43655 76.7122 9.50488 77.1891 9.55102 73.8691C9.6173 69.0875 9.61383 64.299 9.5897 59.5159C9.49928 56.3367 9.81214 53.0343 9.29826 49.8967C9.11692 48.79 7.62728 48.6722 6.94518 48.3369L6.84565 48.0251ZM17.5101 49.0329C15.9256 48.9448 14.2646 49.0027 12.6652 49.014L12.652 62.7993C15.6898 63.5271 18.9337 63.9433 21.2661 61.4031C22.9088 59.3607 23.393 57.8006 23.1397 55.1255C22.844 52.003 20.7742 49.2142 17.5101 49.0329Z" fill="#FFF7ED"></path><path d="M102.075 8.39742C103.073 8.40577 104.043 8.40928 105.039 8.38741C105.524 8.37668 107.054 8.25971 107.445 8.32727L107.453 8.52563C107.175 8.77381 106.541 8.75008 106.167 8.85756C103.697 9.56609 104.625 13.8903 104.805 15.8322L105.44 22.7211C105.686 25.4927 105.951 28.2628 106.233 31.0311C106.383 32.4831 106.486 33.8751 106.784 35.3136C107.164 37.1496 109.123 36.2552 109.346 37.1445C109.175 37.297 101.232 37.3847 100.858 37.1995L100.809 36.9959C101.361 36.421 103.388 37.2185 103.36 34.4552C103.336 32.0468 103.049 29.7135 102.831 27.3195L101.899 16.3642C101.698 15.2061 101.771 13.1013 101.783 11.84L95.9962 26.7273C94.5813 30.3954 93.2191 33.7707 91.951 37.5066C89.9411 32.6175 87.9048 27.7397 85.842 22.8734C84.3515 19.3361 82.8314 15.8939 81.5592 12.2688C81.2795 17.5827 80.5955 22.7776 80.0922 28.0652C79.958 30.322 79.5237 32.5297 79.6864 34.7905C79.8292 36.7732 82.11 36.3196 82.2118 37.2286C81.6988 37.3799 76.9199 37.2124 75.9904 37.2632C75.822 37.2723 75.7517 37.1826 75.6715 37.0647C75.9649 36.64 77.5627 36.1826 77.8922 35.6124C78.1712 35.1294 78.3767 34.4193 78.443 33.8697C78.7468 31.3494 78.9931 28.7803 79.2541 26.256L80.1394 17.4274C80.3309 15.5447 80.7522 12.5377 80.6081 10.654C80.485 9.04488 78.1875 8.75998 77.8608 8.53636L77.8118 8.20845C79.7976 8.42475 81.1863 8.40897 83.1634 8.40371C84.3244 10.7556 85.7295 14.4688 86.7664 17.0102L92.9011 31.9454L102.075 8.39742Z" fill="#FFF7ED"></path><path d="M12.9637 7.71085C15.1894 7.55469 17.4897 7.73747 19.5719 8.5835C21.5801 9.39951 21.7772 10.108 23.9852 9.18578C23.9791 10.4448 23.9658 11.6936 24.1139 12.9495C24.1969 13.6523 24.6269 14.6905 24.6066 15.33L24.4516 15.4027C24.1196 15.2286 23.6333 14.0398 23.4313 13.6225C21.7044 10.1114 18.1376 8.66065 14.4833 8.67344C6.57609 8.70119 3.35169 15.3029 3.49247 22.4675C3.58182 27.0147 4.66825 30.5466 7.81685 33.8626C11.2706 37.5 17.3532 37.8549 21.1687 34.6998C21.9001 34.0925 21.6735 31.5783 21.661 30.5971C21.6649 29.237 21.7734 27.1201 21.4216 25.8581C20.9911 24.3139 19.9464 24.6246 19.3675 24.3345L19.3494 24.1629C19.7462 23.8811 26.875 23.9078 27.1981 24.13C27.1202 24.7545 26.2444 24.2201 25.6339 24.975C24.7383 26.0825 24.8228 27.4515 24.8204 28.7873C24.8165 30.846 24.8276 32.8881 24.8351 34.9384C23.1575 35.1727 22.113 35.8962 20.5891 36.5568C19.4742 37.0464 18.2954 37.3702 17.0891 37.5179C8.3121 38.6607 1.20502 33.627 0.104508 24.5519C-0.360093 20.6053 0.736378 16.6329 3.15426 13.5029C5.72539 10.1812 8.83596 8.20948 12.9637 7.71085Z" fill="#FFF7ED"></path><path d="M139.936 48.0214C140.289 47.9819 142.248 48.1146 142.817 48.1289C144.759 48.1779 146.576 48.099 148.51 48.0588L148.654 48.2348C148.271 48.6562 146.666 48.5211 146.387 49.6643C145.752 52.2697 145.929 55.1323 145.928 57.8091C145.926 63.2439 145.894 68.6743 145.977 74.1063C146.026 78.0862 148.146 76.4816 148.698 77.6014C147.57 77.6394 140.74 77.68 140.03 77.5314C140.677 76.7495 142.79 77.4182 142.766 74.565C142.693 66.4587 143.161 58.0833 142.537 50.015C142.447 48.8619 140.753 48.6685 140.026 48.3038L139.936 48.0214Z" fill="#FFF7ED"></path><path d="M96.9185 77.5056C97.0181 77.2056 99.3204 76.9655 99.41 75.9464C100.105 68.0373 99.5964 59.8434 99.6911 51.8851C99.7216 49.3355 99.128 48.9743 97.0209 48.257L97.0165 48.1351C97.5182 48.0108 99.7837 48.1354 100.49 48.1418C102.116 48.1689 103.743 48.142 105.367 48.0613L105.449 48.1377C104.792 48.4371 103.306 49.0463 103.184 49.7712C102.487 53.9675 102.881 58.8085 102.795 63.0502C102.719 66.7092 102.802 69.9456 102.853 73.5512C102.877 75.234 102.947 76.474 104.535 77.133C105.101 77.2449 105.683 77.338 106.221 77.5457C105.233 77.6343 97.4653 77.7232 96.9185 77.5056Z" fill="#FFF7ED"></path><path d="M104.535 77.133C105.101 77.2449 105.683 77.338 106.221 77.5457C105.233 77.6343 97.4653 77.7232 96.9185 77.5056C98.3552 77.2891 103.831 77.8483 104.535 77.133Z" fill="#FFF7ED"></path><path d="M61.6021 8.22629C64.0343 8.46776 66.5951 8.47488 69.0373 8.32449C69.4406 8.29963 69.871 8.19813 70.2622 8.31118L70.3124 8.49871C70.0866 8.84158 68.8829 8.68169 68.3214 9.18321C67.1487 10.2305 67.4254 12.8226 67.424 14.3221L67.4253 19.836C67.4283 24.2584 67.3953 28.7456 67.457 33.1644C67.5204 37.7085 69.4911 35.9433 70.3871 37.1364L70.3476 37.1563C70.046 37.3113 61.8135 37.2633 61.6877 37.173C61.7834 36.5625 63.3253 36.7359 63.6868 36.1184C64.5643 34.6199 64.3137 31.5667 64.3139 29.8711L64.3102 15.8384C64.3156 14.4123 64.3173 12.8301 64.2754 11.4202C64.1765 8.09622 62.4815 9.30131 61.5935 8.53553L61.6021 8.22629Z" fill="#FFF7ED"></path><path d="M177.371 8.23155C178.017 8.27622 186.334 8.4821 186.024 8.32418L186.036 8.52883C185.158 9.39085 183.236 7.79925 183.183 11.9376C183.101 18.4714 183.155 25.0061 183.157 31.5417C183.194 32.9251 183.109 34.5225 183.602 35.8332C183.948 36.7544 185.361 36.6261 186.081 36.907L185.966 37.1312C185.792 37.3134 185.333 37.3559 185.116 37.3174C184.04 37.1263 177.697 37.4818 177.313 37.1247C177.82 36.5935 179.941 36.7466 179.994 35.0564C180.233 27.3661 180.041 19.6288 180.079 11.9324C180.099 7.91849 178.167 9.34195 177.335 8.54121L177.371 8.23155Z" fill="#FFF7ED"></path><path d="M130.941 0C131.21 0.135961 132.283 1.38288 132.565 1.69156C130.624 3.92199 129.796 4.37099 127.297 5.84974C126.836 6.16672 126.359 6.45326 125.884 6.7459C126.34 5.79889 130.106 1.02832 130.941 0Z" fill="#FFF7ED"></path></svg>